<?xml version="1.0" encoding="UTF-8"?>
<svg xmlns="http://www.w3.org/2000/svg" viewBox="0 0 100 100">
  <rect width="100" height="100" fill="#ffffff"/>
  <g transform="translate(21.955999999999996, -21.544999999999998)">
    <path d="M14.51 102.50Q10.58 102.50 7.95 100.45Q5.33 98.40 5.33 94.55L5.33 94.55Q5.33 89.87 9.10 87.04Q12.87 84.21 18.70 82.33L18.70 82.33L19.68 77.98Q15.50 82.49 9.84 82.49L9.84 82.49Q5.17 82.49 2.05 79.29Q-1.07 76.10-1.07 69.29L-1.07 69.29Q-1.07 63.22 1.35 56.54Q3.77 49.86 8.57 45.22Q13.37 40.59 20.01 40.59L20.01 40.59Q23.37 40.59 25.01 41.74Q26.65 42.89 26.65 44.77L26.65 44.77L26.65 45.26L27.55 41L39.36 41L31.24 79.05Q35.18 77.74 37.56 75.11Q39.93 72.49 41.57 67.32L41.57 67.32L45.02 67.32Q42.80 74.62 39.03 78.02Q35.26 81.43 30.50 82.66L30.50 82.66L29.27 88.56Q27.63 96.51 23.62 99.51Q19.60 102.50 14.51 102.50L14.51 102.50ZM15.17 74.54Q17.06 74.54 19.02 72.82Q20.99 71.09 21.73 68.14L21.73 68.14L25.91 48.71Q25.91 47.72 25.09 46.70Q24.27 45.67 22.55 45.67L22.55 45.67Q19.27 45.67 16.65 49.49Q14.02 53.30 12.55 58.67Q11.07 64.04 11.07 68.14L11.07 68.14Q11.07 72.24 12.26 73.39Q13.45 74.54 15.17 74.54L15.17 74.54ZM12.63 96.10Q14.02 96.10 15.33 94.22Q16.65 92.33 17.38 88.81L17.38 88.81L17.88 86.43Q9.84 89.38 9.84 93.40L9.84 93.40Q9.84 94.46 10.58 95.28Q11.32 96.10 12.63 96.10L12.63 96.10ZM50.59 82.33Q47.89 82.33 46.00 80.44Q44.12 78.56 44.12 75.85L44.12 75.85Q44.12 73.14 46.00 71.22Q47.89 69.29 50.59 69.29L50.59 69.29Q53.30 69.29 55.23 71.22Q57.15 73.14 57.15 75.85L57.15 75.85Q57.15 78.56 55.23 80.44Q53.30 82.33 50.59 82.33L50.59 82.33Z" fill="#000000"/>
  </g>
</svg>
