<?xml version="1.0" encoding="UTF-8"?>
<svg xmlns="http://www.w3.org/2000/svg" viewBox="0 0 100 100">
  <rect width="100" height="100" fill="#ffffff"/>
  <g transform="translate(22.998, 24.699999999999996) scale(1, -1)">
    <path d="M21.25 19.04Q14.54 19.04 10.44 15.59Q6.35 12.14 6.35 6.53L6.35 6.53Q6.35 3.04 8.00 0.09Q9.66-2.85 12.51-4.55Q15.36-6.26 18.77-6.26L18.77-6.26Q22.26-6.26 24.43-4.51Q26.59-2.76 26.59 0.09L26.59 0.09Q26.59 2.30 25.58 3.59L25.58 3.59Q24.75 2.48 23.32 1.84Q21.90 1.20 20.33 1.20L20.33 1.20Q17.57 1.20 15.82 3.04Q14.08 4.88 14.08 7.82L14.08 7.82Q14.08 10.76 15.78 12.60Q17.48 14.44 20.06 14.44L20.06 14.44Q23.28 14.44 25.58 11.59Q27.88 8.74 29.07 3.13L29.07 3.13L33.67-17.20L33.30-17.20Q30.82-13.71 27.28-11.87Q23.74-10.03 19.50-10.03L19.50-10.03Q14.17-10.03 10.12-12.88Q6.07-15.73 3.91-21.02Q1.75-26.31 1.75-33.30L1.75-33.30Q1.75-43.42 6.16-51.75Q10.58-60.08 18.31-64.86Q26.04-69.64 35.33-69.64L35.33-69.64Q43.15-69.64 47.70-66.24Q52.26-62.84 52.26-56.95L52.26-56.95Q52.26-52.99 50.32-50.60Q48.39-48.21 45.26-48.21L45.26-48.21Q43.52-48.21 42.00-48.94Q40.48-49.68 39.47-51.06L39.47-51.06Q41.12-52.16 42.27-54.60Q43.42-57.04 43.42-59.52L43.42-59.52Q43.42-62.28 41.81-63.80Q40.20-65.32 37.26-65.32L37.26-65.32Q31.92-65.32 26.96-60.58Q21.99-55.84 18.95-48.21Q15.92-40.57 15.92-32.20L15.92-32.20Q15.92-25.30 18.12-21.67Q20.33-18.03 24.47-18.03L24.47-18.03Q29.44-18.03 33.26-23.28Q37.08-28.52 39.38-38.55L39.38-38.55L50.23-38.46L43.52-7.54Q40.57 6.16 35.19 12.60Q29.81 19.04 21.25 19.04L21.25 19.04Z" fill="#000000"/>
  </g>
</svg>
