<svg xmlns="http://www.w3.org/2000/svg" viewBox="0 0 704 678" fill="none">
  <ellipse cx="352" cy="339" rx="330" ry="160" stroke="#fff" stroke-width="0.4" opacity="0.30" transform="rotate(0.0 352 339)" vector-effect="non-scaling-stroke"/>
  <ellipse cx="352" cy="339" rx="330" ry="160" stroke="#fff" stroke-width="0.4" opacity="0.32" transform="rotate(5.0 352 339)" vector-effect="non-scaling-stroke"/>
  <ellipse cx="352" cy="339" rx="330" ry="160" stroke="#fff" stroke-width="0.4" opacity="0.34" transform="rotate(10.0 352 339)" vector-effect="non-scaling-stroke"/>
  <ellipse cx="352" cy="339" rx="330" ry="160" stroke="#fff" stroke-width="0.4" opacity="0.36" transform="rotate(15.0 352 339)" vector-effect="non-scaling-stroke"/>
  <ellipse cx="352" cy="339" rx="330" ry="160" stroke="#fff" stroke-width="0.4" opacity="0.38" transform="rotate(20.0 352 339)" vector-effect="non-scaling-stroke"/>
  <ellipse cx="352" cy="339" rx="330" ry="160" stroke="#fff" stroke-width="0.4" opacity="0.40" transform="rotate(25.0 352 339)" vector-effect="non-scaling-stroke"/>
  <ellipse cx="352" cy="339" rx="330" ry="160" stroke="#fff" stroke-width="0.4" opacity="0.42" transform="rotate(30.0 352 339)" vector-effect="non-scaling-stroke"/>
  <ellipse cx="352" cy="339" rx="330" ry="160" stroke="#fff" stroke-width="0.4" opacity="0.44" transform="rotate(35.0 352 339)" vector-effect="non-scaling-stroke"/>
  <ellipse cx="352" cy="339" rx="330" ry="160" stroke="#fff" stroke-width="0.4" opacity="0.46" transform="rotate(40.0 352 339)" vector-effect="non-scaling-stroke"/>
  <ellipse cx="352" cy="339" rx="330" ry="160" stroke="#fff" stroke-width="0.4" opacity="0.47" transform="rotate(45.0 352 339)" vector-effect="non-scaling-stroke"/>
  <ellipse cx="352" cy="339" rx="330" ry="160" stroke="#fff" stroke-width="0.4" opacity="0.49" transform="rotate(50.0 352 339)" vector-effect="non-scaling-stroke"/>
  <ellipse cx="352" cy="339" rx="330" ry="160" stroke="#fff" stroke-width="0.4" opacity="0.51" transform="rotate(55.0 352 339)" vector-effect="non-scaling-stroke"/>
  <ellipse cx="352" cy="339" rx="330" ry="160" stroke="#fff" stroke-width="0.4" opacity="0.53" transform="rotate(60.0 352 339)" vector-effect="non-scaling-stroke"/>
  <ellipse cx="352" cy="339" rx="330" ry="160" stroke="#fff" stroke-width="0.4" opacity="0.55" transform="rotate(65.0 352 339)" vector-effect="non-scaling-stroke"/>
  <ellipse cx="352" cy="339" rx="330" ry="160" stroke="#fff" stroke-width="0.4" opacity="0.57" transform="rotate(70.0 352 339)" vector-effect="non-scaling-stroke"/>
  <ellipse cx="352" cy="339" rx="330" ry="160" stroke="#fff" stroke-width="0.4" opacity="0.59" transform="rotate(75.0 352 339)" vector-effect="non-scaling-stroke"/>
  <ellipse cx="352" cy="339" rx="330" ry="160" stroke="#fff" stroke-width="0.4" opacity="0.61" transform="rotate(80.0 352 339)" vector-effect="non-scaling-stroke"/>
  <ellipse cx="352" cy="339" rx="330" ry="160" stroke="#fff" stroke-width="0.4" opacity="0.63" transform="rotate(85.0 352 339)" vector-effect="non-scaling-stroke"/>
  <ellipse cx="352" cy="339" rx="330" ry="160" stroke="#fff" stroke-width="0.4" opacity="0.65" transform="rotate(90.0 352 339)" vector-effect="non-scaling-stroke"/>
  <ellipse cx="352" cy="339" rx="330" ry="160" stroke="#fff" stroke-width="0.4" opacity="0.67" transform="rotate(95.0 352 339)" vector-effect="non-scaling-stroke"/>
  <ellipse cx="352" cy="339" rx="330" ry="160" stroke="#fff" stroke-width="0.4" opacity="0.69" transform="rotate(100.0 352 339)" vector-effect="non-scaling-stroke"/>
  <ellipse cx="352" cy="339" rx="330" ry="160" stroke="#fff" stroke-width="0.4" opacity="0.71" transform="rotate(105.0 352 339)" vector-effect="non-scaling-stroke"/>
  <ellipse cx="352" cy="339" rx="330" ry="160" stroke="#fff" stroke-width="0.4" opacity="0.73" transform="rotate(110.0 352 339)" vector-effect="non-scaling-stroke"/>
  <ellipse cx="352" cy="339" rx="330" ry="160" stroke="#fff" stroke-width="0.4" opacity="0.75" transform="rotate(115.0 352 339)" vector-effect="non-scaling-stroke"/>
  <ellipse cx="352" cy="339" rx="330" ry="160" stroke="#fff" stroke-width="0.4" opacity="0.77" transform="rotate(120.0 352 339)" vector-effect="non-scaling-stroke"/>
  <ellipse cx="352" cy="339" rx="330" ry="160" stroke="#fff" stroke-width="0.4" opacity="0.79" transform="rotate(125.0 352 339)" vector-effect="non-scaling-stroke"/>
  <ellipse cx="352" cy="339" rx="330" ry="160" stroke="#fff" stroke-width="0.4" opacity="0.81" transform="rotate(130.0 352 339)" vector-effect="non-scaling-stroke"/>
  <ellipse cx="352" cy="339" rx="330" ry="160" stroke="#fff" stroke-width="0.4" opacity="0.82" transform="rotate(135.0 352 339)" vector-effect="non-scaling-stroke"/>
  <ellipse cx="352" cy="339" rx="330" ry="160" stroke="#fff" stroke-width="0.4" opacity="0.84" transform="rotate(140.0 352 339)" vector-effect="non-scaling-stroke"/>
  <ellipse cx="352" cy="339" rx="330" ry="160" stroke="#fff" stroke-width="0.4" opacity="0.86" transform="rotate(145.0 352 339)" vector-effect="non-scaling-stroke"/>
  <ellipse cx="352" cy="339" rx="330" ry="160" stroke="#fff" stroke-width="0.4" opacity="0.88" transform="rotate(150.0 352 339)" vector-effect="non-scaling-stroke"/>
  <ellipse cx="352" cy="339" rx="330" ry="160" stroke="#fff" stroke-width="0.4" opacity="0.90" transform="rotate(155.0 352 339)" vector-effect="non-scaling-stroke"/>
  <ellipse cx="352" cy="339" rx="330" ry="160" stroke="#fff" stroke-width="0.4" opacity="0.92" transform="rotate(160.0 352 339)" vector-effect="non-scaling-stroke"/>
  <ellipse cx="352" cy="339" rx="330" ry="160" stroke="#fff" stroke-width="0.4" opacity="0.94" transform="rotate(165.0 352 339)" vector-effect="non-scaling-stroke"/>
  <ellipse cx="352" cy="339" rx="330" ry="160" stroke="#fff" stroke-width="0.4" opacity="0.96" transform="rotate(170.0 352 339)" vector-effect="non-scaling-stroke"/>
  <ellipse cx="352" cy="339" rx="330" ry="160" stroke="#fff" stroke-width="0.4" opacity="0.98" transform="rotate(175.0 352 339)" vector-effect="non-scaling-stroke"/>
</svg>